<?xml version="1.0" encoding="UTF-8" standalone="no"?>
<!DOCTYPE svg PUBLIC "-//W3C//DTD SVG 20010904//EN"
							"http://www.w3.org/TR/2001/REC-SVG-20010904/DTD/svg10.dtd">

<svg xmlns="http://www.w3.org/2000/svg"
		 width="147.795mm" height="180.6mm"
		 viewBox="0 0 419 512">
	<path fill="black" stroke-width="1"
		d="M 42.00,0.11
			 C 38.00,1.03 34.91,1.25 31.00,2.52
				 13.51,8.20 1.09,23.39 1.00,42.00
				 1.00,42.00 1.00,113.00 1.00,113.00
				 1.00,113.00 1.00,469.00 1.00,469.00
				 1.04,495.91 22.51,511.70 48.00,512.00
				 48.00,512.00 163.00,512.00 163.00,512.00
				 163.00,512.00 369.00,512.00 369.00,512.00
				 374.35,511.99 381.89,511.30 387.00,509.79
				 404.95,504.49 417.91,488.92 418.00,470.00
				 418.00,470.00 418.00,449.00 418.00,449.00
				 418.00,449.00 418.00,403.00 418.00,403.00
				 418.00,403.00 418.00,43.00 418.00,43.00
				 417.96,16.09 396.49,0.30 371.00,0.11
				 371.00,0.11 157.00,0.11 157.00,0.11
				 157.00,0.11 82.00,0.11 82.00,0.11
				 82.00,0.11 42.00,0.11 42.00,0.11 Z
			 M 40.00,6.07
			 C 40.00,6.07 79.00,6.07 79.00,6.07
				 79.00,6.07 152.00,6.07 152.00,6.07
				 152.00,6.07 372.00,6.07 372.00,6.07
				 389.66,6.03 405.64,14.02 410.96,32.00
				 413.63,41.03 413.00,53.49 413.00,63.00
				 413.00,63.00 413.00,112.00 413.00,112.00
				 413.00,112.00 413.00,463.00 413.00,463.00
				 412.99,469.75 412.17,477.75 409.54,484.00
				 402.78,500.03 387.25,505.97 371.00,506.00
				 371.00,506.00 215.00,506.00 215.00,506.00
				 215.00,506.00 48.00,506.00 48.00,506.00
				 42.60,505.99 37.20,505.51 32.00,503.96
				 1.46,494.84 6.00,462.80 6.00,438.00
				 6.00,438.00 6.00,415.00 6.00,415.00
				 6.00,415.00 6.00,114.00 6.00,114.00
				 6.00,114.00 6.00,65.00 6.00,65.00
				 6.00,44.16 3.84,21.56 26.00,10.38
				 30.39,8.16 35.19,7.09 40.00,6.07 Z" />

	<path fill="black" stroke-width="1"
		d="M 7.00,383.00
			 C 7.00,383.00 7.00,468.00 7.00,468.00
				 7.03,490.31 21.69,504.97 44.00,505.00
				 44.00,505.00 165.00,505.00 165.00,505.00
				 165.00,505.00 375.00,505.00 375.00,505.00
				 397.31,504.97 411.97,490.31 412.00,468.00
				 412.00,468.00 412.00,383.00 412.00,383.00
				 412.00,383.00 7.00,383.00 7.00,383.00 Z" />

	<path fill="#f90"
		transform="translate(84,90)"
		d="m 221.503 210.324 c-105.235 50.083-170.545 8.18-212.352-17.271-2.587-1.604-6.984.375-3.169 4.757 13.928 16.888 59.573 57.593 119.153 57.593 59.621 0 95.09-32.532 99.527-38.207 4.407-5.627 1.294-8.731-3.16-6.872zm29.555-16.322
		c-2.826-3.68-17.184-4.366-26.22-3.256-9.05 1.078-22.634 6.609-21.453 9.93.606 1.244 1.843.686 8.06.127 6.234-.622 23.698-2.826 27.337 1.931 3.656 4.79-5.57 27.608-7.255 31.288-1.628 3.68.622 4.629 3.68 2.178 3.016-2.45 8.476-8.795 12.14-17.774 3.639-9.028 5.858-21.622 3.71-24.424z"/>
	
	<text x="210" y="265"
		font-family="Arial"
		font-size="350"
		text-anchor="middle"
		fill="black">
		a
	</text>
	
	<text x="210" y="470"
		font-family="Verdana"
		font-size="70"
		text-anchor="middle"
		fill="white">
		Print
	</text>
</svg>


